<svg width="381" height="248" viewBox="0 0 381 248" fill="none" xmlns="http://www.w3.org/2000/svg">
<path d="M340.112 236.901C323.984 243.771 301.583 247.205 272.91 247.205C244.237 247.205 223.031 241.232 209.292 229.285C195.851 217.04 189.131 197.925 189.131 171.94C189.131 160.292 190.923 144.164 194.507 123.556C201.974 80.2484 214.817 48.888 233.037 29.4744C251.554 10.0608 280.974 0.354004 321.296 0.354004C350.267 0.354004 370.129 3.63938 380.882 10.2101L358.033 72.483C343.099 68.3016 329.509 66.2109 317.263 66.2109C305.018 66.2109 296.356 67.2563 291.279 69.347C286.5 71.4376 283.513 75.4697 282.318 81.4431L264.846 177.316C271.118 178.81 281.87 179.556 297.103 179.556C312.634 179.556 329.36 176.271 347.28 169.7L340.112 236.901ZM178.827 133.86C177.632 143.119 176.885 149.391 176.587 152.676L0.0683594 133.86H178.827ZM187.339 90.8512L183.307 109.667L8.13264 90.8512H187.339ZM176.139 176.868C176.139 181.647 176.736 187.919 177.931 195.685L1.86043 176.868H176.139ZM203.019 47.8426C199.435 55.6081 196.897 61.5815 195.403 65.7629L26.0533 47.8426H203.019ZM185.547 220.325C189.131 227.493 193.014 233.018 197.195 236.901L40.8378 220.325H185.547ZM241.997 4.83406C234.829 9.01545 228.706 13.9435 223.628 19.6183L86.0874 4.83406H241.997Z" fill="#A30015"/>
<path d="M0.820984 176.516H176.176C177.982 190.364 178.183 195.582 178.434 196.083L0.820984 176.516Z" fill="#F6D6A3"/>
<path d="M0.0683594 133.618H179.186L176.928 153.185L0.0683594 133.618Z" fill="#2F0047" stroke="black" stroke-width="0.01" stroke-linejoin="round"/>
<path d="M204.022 47.8219L204.017 47.8198L204.011 47.8169H25.6566V47.8219V47.8269V47.8269L195.743 65.8892L195.742 65.8998L195.748 65.8863L204.026 47.824L204.022 47.8219Z" fill="#F6D6A3" stroke="black" stroke-width="0.01" stroke-linejoin="round"/>
<path d="M88.8746 4.92401H241.652L223.589 19.9759L88.8746 4.92401Z" fill="#2F0047"/>
</svg>
